<svg xmlns="http://www.w3.org/2000/svg" xmlns:xlink="http://www.w3.org/1999/xlink" width="500" zoomAndPan="magnify" viewBox="0 0 375 374.999991" height="500" preserveAspectRatio="xMidYMid meet" version="1.0"><defs><clipPath id="713fa4014b"><path d="M 0 0 L 373.390625 0 L 373.390625 375 L 0 375 Z M 0 0 " clip-rule="nonzero"/></clipPath><clipPath id="4e1b682d29"><path d="M 17.25 0 L 356.140625 0 C 360.71875 0 365.105469 1.816406 368.339844 5.050781 C 371.574219 8.289062 373.390625 12.675781 373.390625 17.25 L 373.390625 357.75 C 373.390625 362.324219 371.574219 366.710938 368.339844 369.949219 C 365.105469 373.183594 360.71875 375 356.140625 375 L 17.25 375 C 12.675781 375 8.289062 373.183594 5.050781 369.949219 C 1.816406 366.710938 0 362.324219 0 357.75 L 0 17.25 C 0 12.675781 1.816406 8.289062 5.050781 5.050781 C 8.289062 1.816406 12.675781 0 17.25 0 Z M 17.25 0 " clip-rule="nonzero"/></clipPath><clipPath id="35ab381039"><path d="M 190 136 L 331.027344 136 L 331.027344 268 L 190 268 Z M 190 136 " clip-rule="nonzero"/></clipPath></defs><g clip-path="url(#713fa4014b)"><g clip-path="url(#4e1b682d29)"><path fill="#2a2a2a" d="M 0 0 L 373.390625 0 L 373.390625 374.851562 L 0 374.851562 Z M 0 0 " fill-opacity="1" fill-rule="nonzero"/></g></g><path fill="#6e3b3b" d="M 69.988281 307.238281 C 73.457031 310.683594 77.230469 313.761719 81.304688 316.472656 C 85.375 319.179688 89.675781 321.464844 94.195312 323.332031 C 98.71875 325.195312 103.378906 326.605469 108.175781 327.554688 C 112.976562 328.503906 117.820312 328.980469 122.710938 328.980469 C 129.75 328.953125 136.652344 327.957031 143.414062 326.003906 L 51.222656 233.964844 C 50.316406 237.144531 49.621094 240.371094 49.140625 243.644531 C 48.660156 246.917969 48.394531 250.207031 48.351562 253.515625 C 48.304688 256.824219 48.476562 260.121094 48.867188 263.40625 C 49.261719 266.691406 49.867188 269.9375 50.6875 273.140625 C 51.507812 276.34375 52.535156 279.480469 53.773438 282.550781 C 55.007812 285.621094 56.441406 288.59375 58.070312 291.472656 C 59.699219 294.351562 61.511719 297.109375 63.507812 299.75 C 65.503906 302.386719 67.664062 304.882812 69.988281 307.238281 Z M 69.988281 307.238281 " fill-opacity="1" fill-rule="nonzero"/><path fill="#6e3b3b" d="M 65.96875 206.410156 L 170.816406 311.257812 C 174.433594 308.621094 193.289062 289.277344 196.433594 286.089844 L 91.136719 180.792969 C 87.59375 184.292969 68.738281 202.597656 65.96875 206.410156 Z M 65.96875 206.410156 " fill-opacity="1" fill-rule="nonzero"/><path fill="#6e3b3b" d="M 240.515625 69.839844 L 238.878906 46.011719 L 177.367188 50.628906 L 109.605469 157.113281 L 139.390625 186.902344 Z M 240.515625 69.839844 " fill-opacity="1" fill-rule="nonzero"/><path fill="#6e3b3b" d="M 169.027344 216.539062 L 285.046875 116.753906 L 285.046875 92.179688 L 260.621094 92.179688 L 160.6875 208.199219 Z M 169.027344 216.539062 " fill-opacity="1" fill-rule="nonzero"/><g clip-path="url(#35ab381039)"><path fill="#6e3b3b" d="M 307.386719 136.710938 L 190.324219 237.835938 L 220.113281 267.621094 L 326.597656 199.859375 L 331.214844 138.347656 Z M 307.386719 136.710938 " fill-opacity="1" fill-rule="nonzero"/></g></svg>